# xmcd
#
# Track frame offsets: 
#        150
#        19385
#        48523
#        77020
#        96013
#        125008
#        141858
#        165198
#        186580
#        204738
#
# Disc length: 3045 seconds
#
# Revision: 0
# Processed by: cddbd v1.4PL0 Copyright (c) Steve Scherf et al.
# Submitted via: ExactAudioCopy v0.90a11
#
DISCID=8a0be30a
DTITLE=Steve Pierson - Blues Head
DYEAR=1900
DGENRE=
TTITLE0=Talkin' Bout My Baby
TTITLE1=Cold In My Bed
TTITLE2=Hounds Are Hurtin'
TTITLE3=Bad Condition
TTITLE4=Secrets
TTITLE5=I Chose To Sing The Blues
TTITLE6=Found Somebody To Love
TTITLE7=Melinda's Eyes
TTITLE8=Ain't No Dog
TTITLE9=Every Day
EXTD=
EXTT0=
EXTT1=
EXTT2=
EXTT3=
EXTT4=
EXTT5=
EXTT6=
EXTT7=
EXTT8=
EXTT9=
PLAYORDER=
